<svg width="777" height="683" viewBox="0 0 777 683" fill="none" xmlns="http://www.w3.org/2000/svg">
<line x1="241.461" y1="0.710836" x2="776.195" y2="465.534" stroke="white"/>
<line x1="241.461" y1="0.710836" x2="776.195" y2="465.534" stroke="black"/>
<line x1="241.461" y1="0.710836" x2="776.195" y2="465.534" stroke="white"/>
<line x1="201.328" y1="33.6226" x2="736.062" y2="498.446" stroke="white"/>
<line x1="201.328" y1="33.6226" x2="736.062" y2="498.446" stroke="black"/>
<line x1="201.328" y1="33.6226" x2="736.062" y2="498.446" stroke="white"/>
<line x1="122.328" y1="97.6226" x2="657.062" y2="562.446" stroke="white"/>
<line x1="122.328" y1="97.6226" x2="657.062" y2="562.446" stroke="black"/>
<line x1="122.328" y1="97.6226" x2="657.062" y2="562.446" stroke="white"/>
<line x1="81.328" y1="143.623" x2="616.062" y2="608.446" stroke="white"/>
<line x1="81.328" y1="143.623" x2="616.062" y2="608.446" stroke="black"/>
<line x1="81.328" y1="143.623" x2="616.062" y2="608.446" stroke="white"/>
<line x1="0.328024" y1="217.623" x2="535.062" y2="682.446" stroke="white"/>
<line x1="0.328024" y1="217.623" x2="535.062" y2="682.446" stroke="black"/>
<line x1="0.328024" y1="217.623" x2="535.062" y2="682.446" stroke="white"/>
</svg>
